<?xml version="1.0" encoding="UTF-8"?>
<svg id="Layer_2" data-name="Layer 2" xmlns="http://www.w3.org/2000/svg" viewBox="0 0 658.2 233.5">
  <defs>
    
  </defs>
  <g id="Layer_1" data-name="Layer 1">
    <g>
      <rect class="cls-2" width="658.2" height="233.5"></rect>
      <g>
        <path class="cls-3" d="M176.38,159.4l3.53,7.98h-8.29l-9.52-20.57h-38.68c-2.86,0-4.96,1.33-6.29,3.99l-7.83,16.57h-5.37l38.22-79.35h1.69l32.54,71.37-.61.31.61-.31ZM160.11,142.82l-18.27-40.98-20.57,40.98h38.83Z"></path>
        <path class="cls-3" d="M282.13,90.79h6.76v76.59h-7.52v-66.31l-36.68,62.77-36.38-62.16v65.69h-4.6v-76.59h7.06l1.08,1.84,34.53,59.09,35.76-60.93Z"></path>
        <path class="cls-3" d="M521.42,151.42l.92.61.62.31-.31.61c-.61,1.03-1.36,2.18-2.23,3.45-.87,1.28-2.76,3.07-5.68,5.37-2.92,2.3-6.27,4.22-10.05,5.76-3.69,1.43-7.98,2.15-12.89,2.15-2.86,0-6.24-.46-10.13-1.38-.82-.21-1.64-.46-2.46-.77-2.05-.62-4.04-1.38-5.99-2.3-1.33-.71-2.61-1.48-3.84-2.3-.72-.51-1.69-1.28-2.92-2.3l-.31-.16c-1.23-.92-3.79-3.12-7.67-6.6-2.15-1.94-3.43-3.12-3.84-3.53l-1.53-1.08c-1.13-.92-1.94-1.58-2.45-1.99-4.81-3.68-10.13-5.63-15.96-5.83l-9.36-.15h-7.06v26.09h-7.52v-76.44h35c2.25,0,4.4.26,6.45.77,2.25.51,4.4,1.38,6.45,2.61.82.41,1.64.92,2.46,1.53,1.02.72,1.99,1.53,2.92,2.46,1.53,1.43,2.86,3.12,3.99,5.06,2.35,3.89,3.53,8.13,3.53,12.74,0,3.89-.87,7.57-2.61,11.05-.31.51-.62,1.02-.92,1.53-.21.51-.46.97-.77,1.38-.62.82-1.28,1.64-2,2.45-1.84,2.05-3.94,3.79-6.29,5.22h-.15l-.15.15c-.41.21-.82.41-1.23.62-.21.1-.46.25-.77.46l-.62.16c-.31.1-.61.25-.92.46h-.31c-1.13.41-2.3.77-3.53,1.07.62.21,1.23.46,1.84.77,2.35,1.02,5.42,2.87,9.21,5.53,2.35,1.64,4.6,3.38,6.76,5.22.82.62,1.33,1.03,1.53,1.23,2.45,2.25,5.17,4.3,8.13,6.14.1.1.31.21.61.31l.46.31c.82.51,2.15,1.13,3.99,1.84,3.58,1.53,7.11,2.3,10.59,2.3,4.4,0,8.24-.56,11.51-1.69,3.27-1.12,6.09-2.51,8.44-4.14,2.15-1.43,3.94-3.07,5.37-4.91.31-.51.66-.97,1.07-1.38l.62-.77ZM440.69,95.7h-22.41v40.68h21.34c.71,0,1.48-.05,2.3-.15h.77c.82-.1,1.48-.15,1.99-.15l.15-.16c.71-.1,1.43-.2,2.15-.31.71-.2,1.38-.41,1.99-.61,1.23-.31,2.4-.77,3.53-1.38,3.58-1.84,6.29-4.24,8.13-7.21,1.74-2.86,2.66-6.09,2.76-9.67v-1.23c-.1-1.74-.36-3.38-.77-4.91-.31-1.13-.72-2.25-1.23-3.38-.1-.21-.21-.41-.31-.62-.21-.41-.36-.66-.46-.77-.31-.51-.66-1.07-1.07-1.69-1.74-2.25-4.1-4.14-7.06-5.68-1.13-.51-2.3-.97-3.53-1.38-.62-.2-1.28-.41-1.99-.61-.72-.1-1.38-.2-2-.31-.61-.1-1.23-.2-1.84-.31h-.61l-.77-.16h-1.08ZM518.2,88.18l36.07,79.2h-8.29l-9.52-20.57h-38.68c-2.97,0-5.06,1.33-6.29,3.99l-3.07,6.29c-.31.51-.61,1.13-.92,1.84l-1.38,3.07-.62-.31c-.41-.21-1.13-.56-2.15-1.08l-1.53-.77,34.69-71.68h1.69ZM534.47,142.98l-18.27-41.14-20.57,41.14h38.83Z"></path>
        <g>
          <path class="cls-1" d="M369.33,63.81s-.69.03-.74.04c-.67.06-1.34.16-2,.3-2.18.47-4.28,1.34-6.15,2.56-2.66,1.74-4.88,4.23-6.31,7.06-1.04,2.05-1.78,4.27-2.62,6.41-.23.59-.47,1.18-.7,1.77.01-.03.77,0,.82,0,.73-.02,1.46-.11,2.18-.23,2.34-.42,4.59-1.34,6.53-2.73,2.44-1.75,4.44-4.29,5.59-7.06.86-2.07,1.72-4.14,2.58-6.2.27-.64.53-1.28.8-1.92Z"></path>
          <path class="cls-1" d="M333.55,63.81s.69.03.74.04c.67.06,1.34.16,2,.3,2.18.47,4.28,1.34,6.15,2.56,2.66,1.74,4.88,4.23,6.31,7.06,1.04,2.05,1.78,4.27,2.62,6.41.23.59.47,1.18.7,1.77-.01-.03-.77,0-.82,0-.73-.02-1.46-.11-2.18-.23-2.34-.42-4.59-1.34-6.53-2.73-2.44-1.75-4.44-4.29-5.59-7.06-.86-2.07-1.72-4.14-2.58-6.2-.27-.64-.53-1.28-.8-1.92Z"></path>
        </g>
        <path class="cls-3" d="M385.28,159.4l-32.54-71.37h-1.69l-38.22,79.35h5.37l7.83-16.58c1.33-2.66,4.14-7.98,4.14-7.98l20.57-40.98,18.26,40.98,2,3.99,9.52,20.57h8.29l-3.53-7.98Z"></path>
      </g>
    </g>
  </g>
</svg>